<?xml version="1.0" encoding="UTF-8"?>
<svg id="_图层_2" data-name="图层 2" xmlns="http://www.w3.org/2000/svg" viewBox="0 0 59.71 57.13">
  <defs>
    <style>
      .cls-1 {
        fill: #ec7102;
        stroke-width: 0px;
      }
    </style>
  </defs>
  <g id="Layer_1" data-name="Layer 1">
    <path class="cls-1" d="M59.04,32.32c0-5.76-4.67-10.43-10.43-10.43h-21.38v27.53c-10.9-.69-19.56-9.77-19.56-20.85S17.05,7.67,28.57,7.67c7.71,0,14.45,4.2,18.07,10.42h2.8c2.24,0,4.35.52,6.24,1.44C51.88,8.2,41.16,0,28.57,0,12.81,0,0,12.82,0,28.57s12.1,27.84,27.23,28.53v.03h10.94v-14.38h10.43c5.76,0,10.43-4.67,10.43-10.43h.01ZM45.39,35.92h-7.22v-7.2h7.22c1.99,0,3.6,1.61,3.6,3.6s-1.61,3.6-3.6,3.6Z"/>
    <polygon class="cls-1" points="41.58 45.48 47.4 57.12 59.71 57.12 53.31 45.66 41.58 45.48"/>
  </g>
</svg>