<svg width="171" height="58" viewBox="0 0 171 58" fill="none" xmlns="http://www.w3.org/2000/svg">
<path d="M167.002 49.8881H169.902V48.1881C169.904 47.8284 169.801 47.476 169.606 47.174C169.411 46.8721 169.131 46.6337 168.802 46.4881C167.121 45.8881 165.284 45.8881 163.602 46.4881C163.274 46.6337 162.994 46.8721 162.799 47.174C162.604 47.476 162.5 47.8284 162.502 48.1881V51.8881H166.702V54.2881C166.702 54.4881 166.602 54.5881 166.602 54.6881C166.602 54.7881 166.402 54.7881 166.202 54.7881C166.002 54.7881 165.902 54.7881 165.802 54.6881C165.702 54.5881 165.702 54.4881 165.702 54.2881V52.2881H162.502V54.0881C162.5 54.4478 162.604 54.8002 162.799 55.1022C162.994 55.4041 163.274 55.6425 163.602 55.7881C165.284 56.3881 167.121 56.3881 168.802 55.7881C169.131 55.6425 169.411 55.4041 169.606 55.1022C169.801 54.8002 169.904 54.4478 169.902 54.0881V50.4881H165.702V48.0881C165.702 47.8881 165.802 47.7881 165.802 47.6881C165.802 47.5881 166.002 47.5881 166.202 47.5881C166.402 47.5881 166.502 47.5881 166.602 47.6881C166.702 47.7881 166.702 47.8881 166.702 48.0881V49.8881H167.002Z" fill="#23255F"/>
<path d="M161.102 53.788V48.1881C161.102 47.8414 160.997 47.5029 160.801 47.2173C160.604 46.9316 160.326 46.7122 160.002 46.588C158.305 46.088 156.5 46.088 154.802 46.588C154.491 46.7292 154.223 46.9529 154.029 47.2349C153.836 47.5168 153.722 47.8464 153.702 48.1881V50.088H156.902V48.088C156.902 47.888 156.902 47.7881 157.002 47.6881C157.102 47.5881 157.202 47.588 157.402 47.588C157.602 47.588 157.802 47.5881 157.802 47.6881C157.802 47.7881 157.902 47.888 157.902 48.088V50.3881H153.702V54.088C153.668 54.4415 153.76 54.7957 153.961 55.0883C154.162 55.3809 154.46 55.5933 154.802 55.6881C155.626 56.0223 156.516 56.1593 157.402 56.088C157.739 56.1044 158.076 56.0707 158.402 55.988C160.102 55.788 159.302 56.088 159.802 56.088H162.002V53.788H161.102ZM157.902 54.1881C157.902 54.3881 157.902 54.488 157.702 54.588C157.585 54.6676 157.443 54.703 157.302 54.6881C157.102 54.6881 156.902 54.688 156.902 54.588C156.902 54.488 156.802 54.3881 156.802 54.1881V51.988H157.902V54.1881Z" fill="#23255F"/>
<path d="M152.802 43.988H149.702V55.988H152.802V43.988Z" fill="#23255F"/>
<path d="M147.802 54.2881C147.674 54.2534 147.563 54.1735 147.49 54.0631C147.416 53.9528 147.385 53.8196 147.402 53.6881V47.7881H149.102V46.2881H147.402V44.2881H144.202V46.2881H142.802V47.7881H144.202V53.7881C144.153 54.1221 144.172 54.4626 144.258 54.7891C144.344 55.1156 144.495 55.4214 144.702 55.6881C145.002 55.9881 145.802 56.0881 147.202 56.0881H149.202V54.3881H148.602C148.332 54.4043 148.06 54.3704 147.802 54.2881Z" fill="#23255F"/>
<path d="M143.202 56.088H137.602L136.602 50.788H134.002L133.002 56.088H127.402L131.702 36.188H139.002C138.802 36.188 143.202 56.088 143.202 56.088ZM136.002 47.988L135.202 41.988L134.402 47.988H136.002Z" fill="#23255F"/>
<path d="M56.202 39.488C57.1501 38.5013 57.8925 37.336 58.3861 36.0599C58.8798 34.7837 59.1149 33.4221 59.0776 32.0543C59.0404 30.6865 58.7317 29.3397 58.1693 28.0923C57.607 26.8449 56.8023 25.7217 55.802 24.788C53.8566 22.9433 51.2829 21.9067 48.602 21.888H27.202V49.388C21.9144 49.0555 16.9528 46.7183 13.3292 42.8531C9.70568 38.988 7.69311 33.8861 7.70203 28.588C7.78437 23.0707 10.0128 17.8024 13.9146 13.9006C17.8164 9.99876 23.0847 7.77036 28.602 7.68802C32.2632 7.69647 35.8587 8.66034 39.0332 10.4843C42.2076 12.3083 44.851 14.9293 46.702 18.088H49.502C51.6458 18.0995 53.7613 18.5772 55.702 19.488C53.5355 13.0647 49.1579 7.61972 43.3498 4.12416C37.5417 0.628591 30.6808 -0.69029 23.9906 0.402718C17.3004 1.49572 11.216 4.92955 6.82239 10.0918C2.42876 15.2541 0.0116226 21.8092 0.00202699 28.588C-0.0747706 35.947 2.72584 43.045 7.80688 48.3688C12.8879 53.6927 19.8475 56.8214 27.202 57.088H48.702C50.0681 57.0891 51.4209 56.8208 52.6832 56.2985C53.9454 55.7762 55.0923 55.0102 56.0583 54.0443C57.0242 53.0783 57.7902 51.9314 58.3125 50.6692C58.8348 49.4069 59.1031 48.0541 59.102 46.688C59.0372 44.0164 58.007 41.4587 56.202 39.488ZM38.202 28.688H45.402C46.3568 28.688 47.2725 29.0673 47.9476 29.7424C48.6227 30.4176 49.002 31.3332 49.002 32.288C49.002 33.2428 48.6227 34.1585 47.9476 34.8336C47.2725 35.5087 46.3568 35.888 45.402 35.888H38.202V28.688ZM45.502 50.288H38.302V43.088H45.502C45.9753 43.086 46.4444 43.1778 46.882 43.358C47.3197 43.5382 47.7173 43.8033 48.052 44.138C48.3867 44.4727 48.6518 44.8703 48.832 45.308C49.0122 45.7457 49.104 46.2147 49.102 46.688C49.0891 47.6388 48.7056 48.547 48.0333 49.2193C47.361 49.8916 46.4528 50.2751 45.502 50.288Z" fill="#23255F"/>
<path d="M109.402 52.788C109.412 53.5219 109.197 54.2414 108.786 54.8494C108.375 55.4574 107.787 55.9246 107.102 56.188C105.802 56.888 104.102 57.088 101.502 57.088C98.9019 57.088 97.2019 56.888 95.9019 56.188C95.2168 55.9246 94.629 55.4574 94.2177 54.8494C93.8064 54.2414 93.5915 53.5219 93.6019 52.788V40.388C93.5915 39.6541 93.8064 38.9346 94.2177 38.3266C94.629 37.7186 95.2168 37.2514 95.9019 36.988C99.391 35.6295 103.243 35.5235 106.802 36.688C107.51 36.9288 108.123 37.3875 108.554 37.9982C108.985 38.609 109.212 39.3405 109.202 40.088V44.988H102.602V39.988C102.602 39.588 102.402 39.388 102.402 39.088C102.402 38.788 102.002 38.888 101.502 38.888C101.002 38.888 100.902 38.888 100.702 39.088C100.561 39.189 100.45 39.3256 100.38 39.4838C100.31 39.6419 100.283 39.816 100.302 39.988V52.788C100.347 53.0924 100.414 53.3932 100.502 53.688C100.502 53.888 100.902 53.888 101.402 53.888C101.902 53.888 102.002 53.888 102.202 53.688C102.402 53.488 102.402 53.288 102.402 52.788V47.888H109.202L109.402 52.788Z" fill="#23255F"/>
<path d="M77.3021 53.588V47.388C77.2988 47.0038 77.1836 46.6288 76.9704 46.3091C76.7573 45.9894 76.4555 45.7388 76.1021 45.588C75.1866 45.2048 74.1871 45.067 73.2021 45.188C72.2183 45.1236 71.2317 45.2597 70.3021 45.588C69.9486 45.7388 69.6469 45.9894 69.4337 46.3091C69.2206 46.6288 69.1053 47.0038 69.1021 47.388V49.488H72.6021V47.288C72.6021 47.088 72.6021 46.988 72.7021 46.888C72.8021 46.788 72.9021 46.788 73.1021 46.788C73.3021 46.788 73.5021 46.788 73.5021 46.888C73.5021 46.988 73.6021 47.088 73.6021 47.288V49.788H69.0021V53.888C68.9507 54.2824 69.0439 54.6821 69.2646 55.013C69.4852 55.3439 69.8182 55.5837 70.2021 55.688C71.1175 56.0712 72.1171 56.209 73.1021 56.088C73.4716 56.1044 73.8416 56.0708 74.2021 55.988C76.0021 55.688 75.2021 56.088 75.8021 56.088H78.2021V53.588H77.3021ZM73.8021 53.988C73.8021 54.188 73.8021 54.288 73.6021 54.388C73.4847 54.4675 73.343 54.503 73.2021 54.488C73.0021 54.488 72.8021 54.488 72.8021 54.388C72.8021 54.288 72.7021 54.188 72.7021 53.988V51.588H73.9021L73.8021 53.988Z" fill="#23255F"/>
<path d="M67.9019 45.788C67.3678 45.4467 66.7302 45.305 66.1019 45.388C65.6661 45.3715 65.2299 45.4051 64.8019 45.488L63.9019 45.788V45.388H60.4019V56.188H64.0019V47.488C63.9951 47.4337 64.0006 47.3786 64.0179 47.3267C64.0352 47.2748 64.0639 47.2274 64.1019 47.188C64.2019 47.088 64.3019 47.088 64.5019 47.088C64.6433 47.0924 64.7793 47.144 64.888 47.2347C64.9967 47.3253 65.072 47.4497 65.1019 47.588V49.988H68.6019C68.6019 48.988 68.6019 47.988 68.7019 46.988C68.6888 46.7345 68.6075 46.4893 68.4668 46.2781C68.326 46.0669 68.1308 45.8976 67.9019 45.788Z" fill="#23255F"/>
<path d="M82.7017 49.188H79.2017V56.188H82.7017V49.188Z" fill="#23255F"/>
<path d="M82.702 45.3879H79.1021V47.8879H82.702V45.8879V45.5879V45.3879Z" fill="#23255F"/>
<path d="M91.2017 45.988C90.6676 45.6467 90.0301 45.5051 89.4017 45.588C88.9659 45.5715 88.5297 45.6051 88.1017 45.688L87.2017 45.988V45.488H83.7017V56.288H87.2017V47.688C87.1949 47.6337 87.2004 47.5786 87.2177 47.5267C87.235 47.4748 87.2637 47.4274 87.3017 47.388C87.4017 47.288 87.5017 47.288 87.7017 47.288C87.8431 47.2924 87.9791 47.3441 88.0878 47.4347C88.1965 47.5253 88.2718 47.6497 88.3017 47.788V56.488H91.8017L91.9017 47.288C91.9229 47.0269 91.8682 46.7652 91.7439 46.5345C91.6197 46.3038 91.4314 46.114 91.2017 45.988Z" fill="#23255F"/>
<path d="M116.702 46.8879C115.878 46.5537 114.988 46.4167 114.102 46.4879C113.208 46.4502 112.318 46.6214 111.502 46.9879C111.178 47.1121 110.9 47.3315 110.703 47.6171C110.507 47.9028 110.402 48.2413 110.402 48.5879V54.3879C110.402 54.7346 110.507 55.0731 110.703 55.3587C110.9 55.6444 111.178 55.8638 111.502 55.9879C113.199 56.488 115.005 56.488 116.702 55.9879C117.014 55.8468 117.281 55.6231 117.475 55.3411C117.669 55.0591 117.782 54.7295 117.802 54.3879V52.4879H114.602V54.4879C114.602 54.6879 114.602 54.7879 114.502 54.8879C114.402 54.9879 114.302 54.9879 114.102 54.9879C113.902 54.9879 113.702 54.9879 113.702 54.8879C113.702 54.7879 113.602 54.6879 113.602 54.4879V52.1879H117.802V48.4879C117.836 48.1345 117.744 47.7803 117.543 47.4877C117.342 47.1951 117.044 46.9827 116.702 46.8879ZM114.702 50.5879H113.602V48.3879C113.603 48.3106 113.622 48.2345 113.657 48.1653C113.691 48.0961 113.741 48.0355 113.802 47.9879C113.902 47.8879 114.002 47.8879 114.202 47.8879C114.402 47.8879 114.602 47.8879 114.602 47.9879C114.602 48.0879 114.702 48.1879 114.702 48.3879V50.5879Z" fill="#23255F"/>
<path d="M122.002 44.288H118.802V56.288H122.002V44.288Z" fill="#23255F"/>
<path d="M126.002 44.288H122.802V56.288H126.002V44.288Z" fill="#23255F"/>
</svg>
