<?xml version="1.0" encoding="UTF-8"?>
<svg id="_图层_2" data-name="图层 2" xmlns="http://www.w3.org/2000/svg" viewBox="0 0 184.9 57.3">
  <defs>
    <style>
      .cls-1 {
        fill: none;
      }

      .cls-1, .cls-2 {
        stroke-width: 0px;
      }

      .cls-2 {
        fill: #eee;
      }
    </style>
  </defs>
  <g id="Layer_1" data-name="Layer 1">
    <path class="cls-1" d="M171.9,53.9c0,.2.1.3.1.4s.2.1.4.1.3,0,.4-.1c.2-.1.2-.2.2-.4v-2.2h-1.1v2.2h0Z"/>
    <path class="cls-2" d="M182,49.9h2.9v-1.6c0-.7-.4-1.2-1.1-1.7-.6-.3-1.5-.4-2.6-.4s-2,.1-2.6.4c-.7.3-1.1.9-1.1,1.7v3.5h4.2v2.3c0,.2-.1.3-.1.4s-.2.1-.4.1-.3,0-.4-.1c-.1-.1-.1-.2-.1-.4v-1.9h-3.2v1.8c0,.7.4,1.2,1.1,1.7.6.3,1.5.4,2.6.4s2-.1,2.6-.4c.7-.3,1.1-.9,1.1-1.7v-3.6h-4.2v-2.3c0-.2.1-.3.1-.4s.2-.1.4-.1.3,0,.4.1c.1.1.1.2.1.4v1.7l.3.1h0Z"/>
    <path class="cls-2" d="M176.2,53.8v-5.6c0-.7-.4-1.3-1.1-1.6-.6-.3-1.5-.4-2.6-.4s-2,.1-2.6.4c-.7.4-1.1.9-1.1,1.6v1.9h3.2v-2c0-.2,0-.3.1-.4.1-.1.2-.1.4-.1s.4,0,.4.1.1.2.1.4v2.3h-4.2v3.7c0,.8.3,1.3,1.1,1.6.6.3,1.5.4,2.6.4.4,0,.7,0,1-.1,1.7-.2.9.1,1.4.1h2.2v-2.3h-.7s-.1,0-.2,0ZM173,54.2c0,.2,0,.3-.2.4-.1.1-.2.1-.4.1s-.4,0-.4-.1-.1-.2-.1-.4v-2.2h1.1v2.2h0Z"/>
    <rect class="cls-2" x="164.8" y="44.1" width="3.1" height="12"/>
    <path class="cls-2" d="M162.9,54.3c-.3-.1-.4-.3-.4-.6v-5.9h1.7v-1.5h-1.7v-2h-3.2v2h-1.4v1.5h1.4v6c0,1,.2,1.6.5,1.9.3.3,1.1.4,2.5.4h2v-1.7h-.6c-.3,0-.6,0-.8-.1Z"/>
    <g id="a">
      <path class="cls-2" d="M158.3,55.8h-5.6l-1-5.3h-2.6l-1,5.3h-5.6l4.3-19.9h7.3c-.2,0,4.2,19.9,4.2,19.9ZM151.1,47.7l-.8-6-.8,6h1.6Z"/>
    </g>
    <g id="c">
      <path class="cls-2" d="M124.5,52.5c0,1.5-.9,2.8-2.4,3.4-1.3.6-3,.9-5.6.9s-4.3-.2-5.6-.9c-1.5-.6-2.3-1.9-2.3-3.4v-12.4c0-1.5.9-2.8,2.3-3.4,1.3-.6,3.2-1.1,5.6-1.1s4.1.2,5.3.9c1.5.6,2.4,1.7,2.4,3.4v4.9h-6.6v-5.1c0-.4-.2-.6-.2-.9,0-.2-.4-.2-.9-.2s-.6,0-.9.2c-.2.2-.4.4-.4.9v12.8c0,.4.2.6.2.9,0,.2.4.2.9.2s.6,0,.9-.2c.2-.2.2-.4.2-.9v-4.9h6.8l.3,4.9h0Z"/>
    </g>
    <path class="cls-2" d="M100.8,54c0,.2.1.3.1.4s.2.1.4.1.3,0,.4-.1c.2-.1.2-.2.2-.4v-2.4h-1.2c.1,0,.1,2.4.1,2.4Z"/>
    <path class="cls-2" d="M98.4,46.6c-.4-.3-1-.4-1.8-.4-.6,0-.9,0-1.3.1s-.7.2-.9.3v-.4h-3.5v9.9h3.5v-8c0-.1,0-.2.1-.3s.2-.1.4-.1c.3,0,.6.2.6.5v2.1h3.5s0-2.7.1-2.7c.1-.4-.2-.7-.7-1Z"/>
    <rect class="cls-2" x="86.1" y="50.1" width="3.5" height="6"/>
    <path class="cls-2" d="M89.8,46.1h-3.6v2.5h3.6v-2h0v-.3h0v-.2Z"/>
    <path class="cls-2" d="M128.6,47.8c-.2,0-.3,0-.4.1-.1.1-.2.2-.2.4v2.2h1.1v-2.2c0-.2-.1-.3-.1-.4-.1-.1-.2-.1-.4-.1Z"/>
    <path class="cls-2" d="M131.8,46.6c-.6-.3-1.5-.4-2.6-.4s-2,.2-2.6.5c-.7.3-1.1.9-1.1,1.6v5.8c0,.7.4,1.3,1.1,1.6.6.3,1.5.4,2.6.4s2-.1,2.6-.4c.7-.4,1.1-.9,1.1-1.6v-1.9h-3.2v2c0,.2,0,.3-.1.4-.1.1-.2.1-.4.1s-.4,0-.4-.1-.1-.2-.1-.4v-2.3h4.2v-3.7c0-.8-.3-1.3-1.1-1.6ZM129.8,50.3h-1.1v-2.2c0-.2.1-.3.2-.4.1-.1.2-.1.4-.1s.4,0,.4.1.1.2.1.4v2.2h0Z"/>
    <rect class="cls-2" x="133.9" y="44.1" width="3.1" height="12"/>
    <rect class="cls-2" x="137.9" y="44.1" width="3.1" height="12"/>
    <path class="cls-2" d="M59.1,32.3c0-5.8-4.7-10.4-10.4-10.4h-21.4v27.5c-10.9-.7-19.6-9.8-19.6-20.9S17.1,7.6,28.6,7.6c7.7,0,14.5,4.2,18.1,10.4h2.8c2.2,0,4.3.5,6.2,1.4C51.9,8.2,41.2,0,28.6,0,12.8,0,0,12.8,0,28.6s12.1,27.8,27.3,28.5h10.9v-14.3h10.4c5.8,0,10.5-4.7,10.5-10.5h0ZM45.4,35.9h-7.2v-7.2h7.2c2,0,3.6,1.6,3.6,3.6s-1.6,3.6-3.6,3.6Z"/>
    <polygon class="cls-2" points="42.4 45.6 48.2 57.3 60.5 57.3 54.1 45.8 42.4 45.6"/>
    <path class="cls-2" d="M66.9,46.6c-.6-.3-1.5-.4-2.6-.4s-2,.2-2.6.5c-.7.3-1.1.9-1.1,1.6v5.8c0,.7.4,1.3,1.1,1.6.6.3,1.5.4,2.6.4s2-.1,2.6-.4c.7-.4,1.1-.9,1.1-1.6v-1.9h-3.2v2c0,.2,0,.3-.1.4-.1.1-.2.1-.4.1s-.4,0-.4-.1-.1-.2-.1-.4v-2.3h4.2v-3.7c0-.8-.3-1.3-1.1-1.6ZM64.9,50.3h-1.1v-2.2c0-.2.1-.3.2-.4.1-.1.2-.1.4-.1s.4,0,.4.1.1.2.1.4v2.2Z"/>
    <path class="cls-2" d="M73.2,49.9l2.9-.1v-1.6c0-.7-.4-1.2-1.1-1.6-.6-.3-1.5-.4-2.6-.4s-2,.2-2.6.5c-.7.3-1.1,1-1.1,1.7l.1,3.5,4.2-.1v2.3c0,.2-.1.3-.1.4s-.2.1-.4.1-.3,0-.4-.1,0-.2-.1-.4v-1.9l-3.2.1v1.8c0,.7.4,1.2,1.1,1.6.6.3,1.5.4,2.6.4s2-.2,2.6-.5c.7-.3,1.1-1,1.1-1.7l-.1-3.5h0l-4.1.1-.1-2.3c0-.2.1-.3.1-.4s.2-.1.4-.1.3,0,.4.1.1.2.1.4v1.7h.3Z"/>
    <path class="cls-2" d="M105.9,46.5c-.6-.3-1.5-.4-2.6-.4s-2,.2-2.6.5c-.7.3-1.1.9-1.1,1.6v5.8c0,.7.4,1.3,1.1,1.6.6.3,1.5.4,2.6.4s2-.1,2.6-.4c.7-.4,1.1-.9,1.1-1.6v-1.9h-3.2v2c0,.2,0,.3-.1.4-.1.1-.2.1-.4.1s-.4,0-.4-.1-.1-.2-.1-.4v-2.3h4.2v-3.7c0-.8-.3-1.3-1.1-1.6ZM103.9,50.2h-1.1v-2.2c0-.2.1-.3.2-.4.1-.1.2-.1.4-.1s.4,0,.4.1.1.2.1.4v2.2Z"/>
    <g>
      <polyline class="cls-2" points="80.3 46.6 80.3 46.2 76.8 46.3 77 56.1 80.6 56 80.3 48.1"/>
      <path class="cls-2" d="M82.7,51.9c1.4,0,2.6-1.2,2.5-2.7v-1.1c0-.8-.3-1.3-1.1-1.6-.6-.3-1.5-.4-2.6-.3s-1,.6-2,.7c-.8.1-1.2.3-1.4.7-.1.2-.2.5-.2.5v.7c0,.8.1,3.2.1,3.2M82.1,50.3h-1.1v-2.2c0-.2.1-.3.2-.4.1-.1.2-.1.4-.1s.4,0,.4.1.1.2.1.4v2.2Z"/>
    </g>
  </g>
</svg>